<?xml version="1.0" encoding="utf-8"?>
<!-- Generator: Adobe Illustrator 26.0.2, SVG Export Plug-In . SVG Version: 6.00 Build 0)  -->
<svg version="1.1" id="Layer_1" xmlns="http://www.w3.org/2000/svg" xmlns:xlink="http://www.w3.org/1999/xlink" x="0px" y="0px"
	 viewBox="0 0 24 24" style="enable-background:new 0 0 24 24;" xml:space="preserve">
<style type="text/css">
	.st0{fill:currentColor;}
</style>
<path class="st0" d="M16,13c-0.1,0-0.2,0.1-0.3,0.2l-0.2,1.3c-0.3,0.1-0.6,0.3-0.9,0.5l-1.2-0.5c-0.1,0-0.2,0-0.3,0.1l-1,1.7
	c-0.1,0.1,0,0.2,0.1,0.3l1.1,0.8c0,0.2,0,0.3,0,0.5s0,0.3,0,0.5l-1.1,0.8c-0.1,0.1-0.1,0.2-0.1,0.3l1,1.7c0.1,0.1,0.2,0.1,0.3,0.1
	l1.2-0.5c0.3,0.2,0.5,0.4,0.9,0.5l0.2,1.3c0,0.1,0.1,0.2,0.3,0.2h2c0.1,0,0.2-0.1,0.2-0.2l0.2-1.3c0.3-0.1,0.6-0.3,0.8-0.5l1.2,0.5
	c0.1,0,0.3,0,0.3-0.1l1-1.7c0.1-0.1,0-0.2-0.1-0.3l-1.1-0.8c0-0.2,0-0.3,0-0.5s0-0.3,0-0.5l1.1-0.8c0.1-0.1,0.1-0.2,0.1-0.3l-1-1.7
	c-0.1-0.1-0.2-0.1-0.3-0.1L19.3,15c-0.3-0.2-0.5-0.4-0.9-0.5l-0.2-1.3c0-0.1-0.1-0.2-0.2-0.2H16 M17,16.5c0.8,0,1.5,0.7,1.5,1.5
	s-0.7,1.5-1.5,1.5c-0.8,0-1.5-0.7-1.5-1.5S16.2,16.5,17,16.5 M16,11.1V3H2v18h6v-3.5h2C10.3,14.2,12.8,11.5,16,11.1 M6,19H4v-2h2V19
	 M6,15H4v-2h2V15 M6,11H4V9h2V11 M6,7H4V5h2V7 M12,5h2v2h-2V5 M12,9h2v2h-2V9 M10,15H8v-2h2V15 M10,11H8V9h2V11 M8,7V5h2v2H8z"/>
</svg>
