<?xml version="1.0" encoding="utf-8"?>
<!-- Generator: Adobe Illustrator 26.5.2, SVG Export Plug-In . SVG Version: 6.00 Build 0)  -->
<svg version="1.1" id="Layer_1" xmlns="http://www.w3.org/2000/svg" xmlns:xlink="http://www.w3.org/1999/xlink" x="0px" y="0px"
	 viewBox="0 0 24 24" style="enable-background:new 0 0 24 24;" xml:space="preserve">
<style type="text/css">
	.st0{fill:currentColor;}
</style>
<path class="st0" d="M2,2h2v18h18v2H2V2"/>
<path class="st0" d="M11.9,7.8H8.1c-0.3,0-0.6-0.2-0.6-0.6V3.5c0-0.3,0.2-0.6,0.6-0.6h3.8c0.3,0,0.6,0.2,0.6,0.6v3.8
	C12.5,7.6,12.3,7.8,11.9,7.8z"/>
<path class="st0" d="M19.8,7.8H16c-0.3,0-0.6-0.2-0.6-0.6V3.5c0-0.3,0.2-0.6,0.6-0.6h3.8c0.3,0,0.6,0.2,0.6,0.6v3.8
	C20.4,7.6,20.1,7.8,19.8,7.8z"/>
<path class="st0" d="M11.9,16.4H8.1c-0.3,0-0.6-0.2-0.6-0.6V12c0-0.3,0.2-0.6,0.6-0.6h3.8c0.3,0,0.6,0.2,0.6,0.6v3.8
	C12.5,16.1,12.3,16.4,11.9,16.4z"/>
<path class="st0" d="M19.8,16.4H16c-0.3,0-0.6-0.2-0.6-0.6V12c0-0.3,0.2-0.6,0.6-0.6h3.8c0.3,0,0.6,0.2,0.6,0.6v3.8
	C20.4,16.1,20.1,16.4,19.8,16.4z"/>
</svg>
