<?xml version="1.0" encoding="utf-8"?>
<!-- Generator: Adobe Illustrator 22.1.0, SVG Export Plug-In . SVG Version: 6.00 Build 0)  -->
<svg version="1.1"
	 id="svg4" inkscape:version="0.92.2 (5c3e80d, 2017-08-06)" sodipodi:docname="consist-of-view.svg" xmlns:cc="http://creativecommons.org/ns#" xmlns:dc="http://purl.org/dc/elements/1.1/" xmlns:inkscape="http://www.inkscape.org/namespaces/inkscape" xmlns:rdf="http://www.w3.org/1999/02/22-rdf-syntax-ns#" xmlns:sodipodi="http://sodipodi.sourceforge.net/DTD/sodipodi-0.dtd" xmlns:svg="http://www.w3.org/2000/svg"
	 xmlns="http://www.w3.org/2000/svg" xmlns:xlink="http://www.w3.org/1999/xlink" x="0px" y="0px" viewBox="0 0 1792 1792"
	 style="enable-background:new 0 0 1792 1792;" xml:space="preserve">
<style type="text/css">
	.st0{fill:currentColor;}
</style>
<sodipodi:namedview  bordercolor="#666666" borderopacity="1" gridtolerance="10" guidetolerance="10" id="namedview6" inkscape:current-layer="svg4" inkscape:cx="896" inkscape:cy="896" inkscape:pageopacity="0" inkscape:pageshadow="2" inkscape:window-height="1027" inkscape:window-maximized="1" inkscape:window-width="1920" inkscape:window-x="1912" inkscape:window-y="-8" inkscape:zoom="0.13169643" objecttolerance="10" pagecolor="#ffffff" showgrid="false">
	</sodipodi:namedview>
<path id="path2" inkscape:connector-curvature="0" class="st0" d="M1724,1248v320c0,26.7-8.6,49.3-25.8,68c-17.2,18.7-38,28-62.6,28
	h-294.4c-24.5,0-45.4-9.3-62.6-28s-25.8-41.3-25.8-68v-320c0-26.7,8.6-49.3,25.8-68s38-28,62.6-28h88.7V960H959v192h87.7
	c24.5,0,45.4,9.3,62.6,28c17.2,18.7,25.8,41.3,25.8,68v320c0,26.7-8.6,49.3-25.8,68c-17.2,18.7-38,28-62.6,28H752.3
	c-24.5,0-45.4-9.3-62.6-28s-25.8-41.3-25.8-68v-320c0-26.7,8.6-49.3,25.8-68s38-28,62.6-28H841V960H370v192h88.7
	c24.5,0,45.4,9.3,62.6,28c17.2,18.7,25.8,41.3,25.8,68v320c0,26.7-8.6,49.3-25.8,68c-17.2,18.7-38,28-62.6,28H164.3
	c-24.5,0-45.4-9.3-62.6-28S76,1594.7,76,1568v-320c0-26.7,8.6-49.3,25.8-68s38-28,62.6-28H253V960c0-34.7,11.6-64.7,34.9-90
	c23.3-25.3,50.8-38,82.7-38H841V640h-88.5c-24.6,0-45.5-9.3-62.7-28c-17.2-18.7-25.8-41.3-25.8-68V224c0-26.7,8.6-49.3,25.8-68
	c17.2-18.7,38.1-28,62.7-28h294c24.6,0,45.5,9.3,62.7,28c17.2,18.7,25.8,41.3,25.8,68v320c0,26.7-8.6,49.3-25.8,68
	c-17.2,18.7-38.1,28-62.7,28H958v192h471.2c31.9,0,59.5,12.7,82.8,38c23.3,25.3,35,55.3,35,90v192h88.7c24.5,0,45.4,9.3,62.6,28
	C1715.4,1198.7,1724,1221.3,1724,1248z"/>
</svg>
