<?xml version="1.0" encoding="utf-8"?>
<!-- Generator: Adobe Illustrator 24.1.2, SVG Export Plug-In . SVG Version: 6.00 Build 0)  -->
<svg version="1.1" id="Layer_1" xmlns="http://www.w3.org/2000/svg" xmlns:xlink="http://www.w3.org/1999/xlink" x="0px" y="0px"
	 viewBox="0 0 24 24" style="enable-background:new 0 0 24 24;" xml:space="preserve">
<style type="text/css">
	.st0{fill:currentColor;}
</style>
<path class="st0" d="M15,2c1.9,0,3.6,0.7,5,2.1c1.3,1.4,2,3,2,4.9c0,1.6-0.5,3-1.4,4.2c-0.9,1.2-2.1,2.1-3.6,2.5l0-0.3V15
	c0-2.2-0.8-4.1-2.4-5.6S11.2,7,9,7H8.6L8.3,7c0.4-1.5,1.3-2.7,2.5-3.6C12,2.5,13.4,2,15,2 M9,8c3.9,0,7,3.1,7,7s-3.1,7-7,7
	s-7-3.1-7-7S5.1,8,9,8 M9,10c-2.8,0-5,2.2-5,5s2.2,5,5,5s5-2.2,5-5S11.8,10,9,10z"/>
</svg>
