<?xml version="1.0" encoding="UTF-8"?>
<svg id="Layer_1" xmlns="http://www.w3.org/2000/svg" version="1.1" viewBox="0 0 24 24">
  <!-- Generator: Adobe Illustrator 29.3.1, SVG Export Plug-In . SVG Version: 2.1.0 Build 151)  -->
  <defs>
    <style>
      .st0 {
        fill: currentColor;
      }
    </style>
  </defs>
  <path class="st0" d="M9.8,15.9l2.2-2.2,2.2,2.2,1.2-1.2-2.2-2.2,2.2-2.2-1.2-1.2-2.2,2.2-2.2-2.2-1.2,1.2,2.2,2.2-2.2,2.2,1.2,1.2ZM6.4,22c-.6,0-1.1-.2-1.6-.7-.4-.4-.7-1-.7-1.6V5.3h-1.1v-2.2h5.6v-1.1h6.8v1.1h5.6v2.2h-1.1v14.4c0,.6-.2,1.1-.7,1.6-.4.4-1,.7-1.6.7H6.4ZM17.6,5.3H6.4v14.4h11.2V5.3ZM6.4,5.3v14.4V5.3Z"/>
</svg>