<?xml version="1.0" encoding="utf-8"?>
<!-- Generator: Adobe Illustrator 24.0.2, SVG Export Plug-In . SVG Version: 6.00 Build 0)  -->
<svg version="1.1" id="Layer_1" xmlns="http://www.w3.org/2000/svg" xmlns:xlink="http://www.w3.org/1999/xlink" x="0px" y="0px"
	 viewBox="0 0 24 24" style="enable-background:new 0 0 24 24;" xml:space="preserve">
<style type="text/css">
	.st0{fill:currentColor;}
</style>
<path class="st0" d="M8,13h2.6v-3h2.9v3H16l-4,4L8,13 M19.4,10c2.6,0.2,4.6,2.3,4.6,5c0,2.8-2.2,5-5,5H6c-3.3,0-6-2.7-6-6
	c0-3.1,2.3-5.6,5.3-6C6.6,5.6,9.1,4,12,4C15.6,4,18.7,6.6,19.4,10 M19,18c1.7,0,3-1.3,3-3c0-1.6-1.2-2.9-2.8-3l-1.5-0.1l-0.3-1.5
	C16.9,7.9,14.6,6,12,6C9.9,6,8.1,7.1,7.1,9L6.6,9.9L5.6,10c-2,0.2-3.6,1.9-3.6,4c0,2.2,1.8,4,4,4H19z"/>
</svg>
