<?xml version="1.0" encoding="utf-8"?>
<!-- Generator: Adobe Illustrator 27.8.1, SVG Export Plug-In . SVG Version: 6.00 Build 0)  -->
<svg version="1.1" id="Layer_1" xmlns="http://www.w3.org/2000/svg" xmlns:xlink="http://www.w3.org/1999/xlink" x="0px" y="0px"
	 viewBox="0 0 24 24" style="enable-background:new 0 0 24 24;" xml:space="preserve">
<style type="text/css">
	.st0{fill:currentColor;}
</style>
<path class="st0" d="M2,22V2h20v1.5H3.5V22H2"/>
<path class="st0" d="M10.1,19.3H7.7c-1,0-1.7-0.5-1.7-1.3v-1.3c0-0.8,0.7-1.3,1.7-1.3h2.4c1,0,1.7,0.5,1.7,1.3V18
	C11.9,18.8,11.2,19.3,10.1,19.3z"/>
<path class="st0" d="M19.3,19.3h-2.4c-1,0-1.7-0.5-1.7-1.3v-1.3c0-0.8,0.7-1.3,1.7-1.3h2.4c1,0,1.7,0.5,1.7,1.3V18
	C21,18.8,20.3,19.3,19.3,19.3z"/>
<path class="st0" d="M10.1,11.3H7.7c-1,0-1.7-0.5-1.7-1.3V8.6c0-0.8,0.7-1.3,1.7-1.3h2.4c1,0,1.7,0.5,1.7,1.3V10
	C11.9,10.8,11.2,11.3,10.1,11.3z"/>
<path class="st0" d="M19.3,11.3h-2.4c-1,0-1.7-0.5-1.7-1.3V8.6c0-0.8,0.7-1.3,1.7-1.3h2.4c1,0,1.7,0.5,1.7,1.3V10
	C21,10.8,20.3,11.3,19.3,11.3z"/>
</svg>
