<svg width="393" height="475" viewBox="0 0 393 475" fill="none" xmlns="http://www.w3.org/2000/svg">
<mask id="mask0_282_1290" style="mask-type:luminance" maskUnits="userSpaceOnUse" x="106" y="211" width="287" height="264">
<path d="M393 211.865H106.115V474.018H393V211.865Z" fill="currentColor"/>
</mask>
<g mask="url(#mask0_282_1290)">
<path d="M331.524 225.952C327.18 218.233 316.415 211.962 307.727 211.962H191.387C182.699 211.962 171.934 218.233 167.59 225.952L109.42 328.903C105.076 336.622 105.076 349.262 109.42 356.98L167.59 459.931C171.934 467.65 182.699 474.018 191.387 474.018H307.727C316.415 474.018 327.18 467.747 331.524 460.028L389.694 357.077C394.038 349.358 394.038 336.718 389.694 328.999L331.524 225.952Z" fill="#777777"/>
</g>
<mask id="mask1_282_1290" style="mask-type:luminance" maskUnits="userSpaceOnUse" x="120" y="0" width="203" height="185">
<path d="M322.928 0H120.955V184.661H322.928V0Z" fill="currentColor"/>
</mask>
<g mask="url(#mask1_282_1290)">
<path d="M279.648 9.92293C276.59 4.48573 269.011 0.0679932 262.894 0.0679932H180.988C174.872 0.0679932 167.293 4.48573 164.235 9.92293L123.281 82.4417C120.223 87.8789 120.223 96.7823 123.281 102.22L164.235 174.738C167.293 180.176 174.872 184.661 180.988 184.661H262.894C269.011 184.661 276.59 180.243 279.648 174.806L320.601 102.288C323.659 96.8503 323.659 87.9469 320.601 82.5097L279.648 9.92293Z" fill="#777777"/>
</g>
<mask id="mask2_282_1290" style="mask-type:luminance" maskUnits="userSpaceOnUse" x="0" y="137" width="143" height="131">
<path d="M142.618 137H0V267.252H142.618V137Z" fill="currentColor"/>
</mask>
<g mask="url(#mask2_282_1290)">
<path d="M112.057 143.999C109.897 140.164 104.546 137.048 100.227 137.048H42.391C38.0721 137.048 32.7204 140.164 30.5609 143.999L1.64303 195.151C-0.516426 198.986 -0.516426 205.266 1.64303 209.101L30.5609 260.253C32.7204 264.088 38.0721 267.252 42.391 267.252H100.227C104.546 267.252 109.897 264.136 112.057 260.301L140.975 209.149C143.134 205.314 143.134 199.034 140.975 195.199L112.057 143.999Z" fill="#777777"/>
</g>
</svg>
