<?xml version="1.0" encoding="utf-8"?>
<!-- Generator: Adobe Illustrator 23.1.0, SVG Export Plug-In . SVG Version: 6.00 Build 0)  -->
<svg version="1.1" id="Layer_1" xmlns="http://www.w3.org/2000/svg" xmlns:xlink="http://www.w3.org/1999/xlink" x="0px" y="0px"
	 viewBox="0 0 24 24" style="enable-background:new 0 0 24 24;" xml:space="preserve">
<style type="text/css">
	.st0{fill:currentColor;}
</style>
<path class="st0" d="M2,5.3L3.3,4L20,20.7L18.7,22l-3.1-3.1c-1.1,0.4-2.4,0.6-3.6,0.6c-5,0-9.3-3.1-11-7.5c0.7-1.8,1.8-3.3,3.2-4.5
	L2,5.3 M12,9c1.7,0,3,1.3,3,3c0,0.4-0.1,0.7-0.2,1L11,9.2C11.3,9.1,11.6,9,12,9 M12,4.5c5,0,9.3,3.1,11,7.5c-0.8,2.1-2.2,3.9-4,5.2
	l-1.4-1.4c1.4-0.9,2.5-2.2,3.2-3.8c-1.6-3.4-5.1-5.5-8.8-5.5c-1.1,0-2.2,0.2-3.2,0.5L7.3,5.5C8.7,4.8,10.3,4.5,12,4.5 M3.2,12
	c1.6,3.4,5.1,5.5,8.8,5.5c0.7,0,1.4-0.1,2-0.2L11.7,15c-1.4-0.1-2.6-1.3-2.7-2.7L5.6,8.9C4.6,9.7,3.8,10.8,3.2,12z"/>
</svg>
