<?xml version="1.0" encoding="utf-8"?>
<!-- Generator: Adobe Illustrator 27.2.0, SVG Export Plug-In . SVG Version: 6.00 Build 0)  -->
<svg version="1.1" id="Layer_1" xmlns="http://www.w3.org/2000/svg" xmlns:xlink="http://www.w3.org/1999/xlink" x="0px" y="0px"
	 viewBox="0 0 24 24" style="enable-background:new 0 0 24 24;" xml:space="preserve">
<style type="text/css">
	.st0{fill:currentColor;}
</style>
<path class="st0" d="M5,3h2v2H5v5c0,1.1-0.9,2-2,2c1.1,0,2,0.9,2,2v5h2v2H5c-1.1-0.3-2-0.9-2-2v-4c0-1.1-0.9-2-2-2H0v-2h1
	c1.1,0,2-0.9,2-2V5C3,3.9,3.9,3,5,3 M19,3c1.1,0,2,0.9,2,2v4c0,1.1,0.9,2,2,2h1v2h-1c-1.1,0-2,0.9-2,2v4c0,1.1-0.9,2-2,2h-2v-2h2v-5
	c0-1.1,0.9-2,2-2c-1.1,0-2-0.9-2-2V5h-2V3H19 M12,15c0.6,0,1,0.4,1,1c0,0.6-0.4,1-1,1s-1-0.4-1-1C11,15.4,11.4,15,12,15 M8,15
	c0.6,0,1,0.4,1,1c0,0.6-0.4,1-1,1s-1-0.4-1-1C7,15.4,7.4,15,8,15 M16,15c0.6,0,1,0.4,1,1c0,0.6-0.4,1-1,1c-0.6,0-1-0.4-1-1
	C15,15.4,15.4,15,16,15z"/>
</svg>
