<svg id="e7ILnxszdmH1" xmlns="http://www.w3.org/2000/svg" xmlns:xlink="http://www.w3.org/1999/xlink" viewBox="0 0 24 24" shape-rendering="geometricPrecision" text-rendering="geometricPrecision" project-id="13690ba8e8bf4edcaf01914a618c0a3c" export-id="beb5b79c40874f5a8292a50ab2e85b4e" cached="false"><path d="M18,8c1.104569,0,2,.895431,2,2v10c0,1.104569-.895431,2-2,2h-12c-1.11,0-2-.9-2-2v-10c0-1.104569.895431-2,2-2h9v-2c0-1.656854-1.343146-3-3-3s-3,1.343146-3,3h-2c0-2.761424,2.238576-5,5-5s5,2.238576,5,5v2h1m-6,9c1.104569,0,2-.895431,2-2s-.895431-2-2-2-2,.895431-2,2s.895431,2,2,2Z" fill="#747474"/></svg>
