<?xml version="1.0" encoding="UTF-8" standalone="no"?>
<svg
   xmlns:dc="http://purl.org/dc/elements/1.1/"
   xmlns:cc="http://creativecommons.org/ns#"
   xmlns:rdf="http://www.w3.org/1999/02/22-rdf-syntax-ns#"
   xmlns:svg="http://www.w3.org/2000/svg"
   xmlns="http://www.w3.org/2000/svg"
   xmlns:sodipodi="http://sodipodi.sourceforge.net/DTD/sodipodi-0.dtd"
   xmlns:inkscape="http://www.inkscape.org/namespaces/inkscape"
   fill="#000000"
   height="24"
   viewBox="0 0 24 24"
   width="24"
   version="1.1"
   id="svg6"
   sodipodi:docname="log.svg"
   inkscape:version="0.92.2 (5c3e80d, 2017-08-06)">
  <metadata
     id="metadata12">
    <rdf:RDF>
      <cc:Work
         rdf:about="">
        <dc:format>image/svg+xml</dc:format>
        <dc:type
           rdf:resource="http://purl.org/dc/dcmitype/StillImage" />
        <dc:title></dc:title>
      </cc:Work>
    </rdf:RDF>
  </metadata>
  <defs
     id="defs10" />
  <sodipodi:namedview
     pagecolor="#ffffff"
     bordercolor="#666666"
     borderopacity="1"
     objecttolerance="10"
     gridtolerance="10"
     guidetolerance="10"
     inkscape:pageopacity="0"
     inkscape:pageshadow="2"
     inkscape:window-width="1920"
     inkscape:window-height="1027"
     id="namedview8"
     showgrid="false"
     inkscape:zoom="9.8333333"
     inkscape:cx="-5.3389831"
     inkscape:cy="12"
     inkscape:window-x="1912"
     inkscape:window-y="-8"
     inkscape:window-maximized="1"
     inkscape:current-layer="svg6" />
  <path
     d="M0 0h24v24H0z"
     fill="none"
     id="path4" />
  <path
     inkscape:connector-curvature="0"
     d="m 13.584267,1.3944048 c -5.4176789,0 -9.8106841,4.7261825 -9.8106841,10.5547512 H 0.50335366 l 4.24039544,4.561995 0.076303,0.164187 4.4039068,-4.726188 H 5.9537308 c 0,-4.5385403 3.4119374,-8.2092507 7.6305332,-8.2092507 4.218594,0 7.630537,3.6707104 7.630537,8.2092507 0,4.538541 -3.411943,8.209245 -7.630537,8.209245 -2.103847,0 -4.01148,-0.926471 -5.3849778,-2.415862 l -1.5479074,1.665308 c 1.7768229,1.911583 4.2185952,3.096059 6.9328852,3.096059 5.417678,0 9.810688,-4.726178 9.810688,-10.554744 0,-5.8285687 -4.39301,-10.5547512 -9.810688,-10.5547512 z M 12.494191,7.258158 v 5.863746 l 4.665527,2.978784 0.784855,-1.419025 -3.815268,-2.43932 V 7.258158 Z"
     id="path4-2"
     style="fill:currentColor;fill-opacity:1;stroke-width:1.13065743" />
</svg>
