<?xml version="1.0" encoding="UTF-8" standalone="no"?>
<svg
   xmlns:dc="http://purl.org/dc/elements/1.1/"
   xmlns:cc="http://creativecommons.org/ns#"
   xmlns:rdf="http://www.w3.org/1999/02/22-rdf-syntax-ns#"
   xmlns:svg="http://www.w3.org/2000/svg"
   xmlns="http://www.w3.org/2000/svg"
   xmlns:sodipodi="http://sodipodi.sourceforge.net/DTD/sodipodi-0.dtd"
   xmlns:inkscape="http://www.inkscape.org/namespaces/inkscape"
   fill="#000000"
   height="24"
   viewBox="0 0 24 24"
   width="24"
   version="1.1"
   id="svg6"
   sodipodi:docname="manual-inspection.svg"
   inkscape:version="0.92.2 (5c3e80d, 2017-08-06)">
  <metadata
     id="metadata12">
    <rdf:RDF>
      <cc:Work
         rdf:about="">
        <dc:format>image/svg+xml</dc:format>
        <dc:type
           rdf:resource="http://purl.org/dc/dcmitype/StillImage" />
        <dc:title></dc:title>
      </cc:Work>
    </rdf:RDF>
  </metadata>
  <defs
     id="defs10" />
  <sodipodi:namedview
     pagecolor="#ffffff"
     bordercolor="#666666"
     borderopacity="1"
     objecttolerance="10"
     gridtolerance="10"
     guidetolerance="10"
     inkscape:pageopacity="0"
     inkscape:pageshadow="2"
     inkscape:window-width="1920"
     inkscape:window-height="1027"
     id="namedview8"
     showgrid="false"
     inkscape:zoom="9.8333333"
     inkscape:cx="12"
     inkscape:cy="12"
     inkscape:window-x="1912"
     inkscape:window-y="-8"
     inkscape:window-maximized="1"
     inkscape:current-layer="svg6" />
  <path
     d="M0 0h24v24H0z"
     fill="none"
     id="path2" />
  <path
     d="m 19.723164,3.9152541 h -4.581469 c -0.460339,-1.16 -1.665989,-2 -3.090848,-2 -1.424859,0 -2.630508,0.84 -3.090847,2 H 4.3785311 c -1.2056498,0 -2.1920904,0.9 -2.1920904,2 V 19.915255 c 0,1.1 0.9864406,2 2.1920904,2 H 19.723164 c 1.20565,0 2.19209,-0.9 2.19209,-2 V 5.9152541 c 0,-1.1 -0.98644,-2 -2.19209,-2 z m -7.672317,0 c 0.602825,0 1.096046,0.45 1.096046,1 0,0.55 -0.493221,1 -1.096046,1 -0.602824,0 -1.096044,-0.45 -1.096044,-1 0,-0.55 0.49322,-1 1.096044,-1 z M 14.242938,17.915255 H 6.5706214 v -2 h 7.6723166 z m 3.288135,-4 H 6.5706214 v -2 H 17.531073 Z m 0,-4.0000009 H 6.5706214 v -2 H 17.531073 Z"
     id="path4"
     style="fill:currentColor;fill-opacity:1;stroke-width:1.04692173"
     inkscape:connector-curvature="0" />
</svg>
