<?xml version="1.0" encoding="utf-8"?>
<!-- Generator: Adobe Illustrator 24.3.0, SVG Export Plug-In . SVG Version: 6.00 Build 0)  -->
<svg version="1.1" id="Layer_1" xmlns="http://www.w3.org/2000/svg" xmlns:xlink="http://www.w3.org/1999/xlink" x="0px" y="0px"
	 viewBox="0 0 24 24" style="enable-background:new 0 0 24 24;" xml:space="preserve">
<style type="text/css">
	.st0{fill:currentColor;}
</style>
<path class="st0" d="M19.3,18.9l3.1,3.1L21,23.4l-3.1-3.1c-0.7,0.4-1.5,0.7-2.4,0.7C13,21,11,19,11,16.5s2-4.5,4.5-4.5
	s4.5,2,4.5,4.5C20,17.4,19.8,18.2,19.3,18.9 M15.5,19c1.4,0,2.5-1.1,2.5-2.5S16.9,14,15.5,14S13,15.1,13,16.5S14.1,19,15.5,19 M21,4
	v2H3V4H21 M3,16v-2h6v2H3 M3,11V9h18v2h-2c-1-0.6-2.2-1-3.5-1S13,10.4,12,11H3z"/>
</svg>
