<?xml version="1.0" encoding="utf-8"?>
<!-- Generator: Adobe Illustrator 24.0.0, SVG Export Plug-In . SVG Version: 6.00 Build 0)  -->
<svg version="1.1" id="Layer_1" xmlns="http://www.w3.org/2000/svg" xmlns:xlink="http://www.w3.org/1999/xlink" x="0px" y="0px"
	 viewBox="0 0 24 24" style="enable-background:new 0 0 24 24;" xml:space="preserve">
<style type="text/css">
	.st0{fill:currentColor;}
</style>
<path class="st0" d="M19.3,17.9c1.3-2.1,0.7-4.9-1.4-6.2c-2.1-1.3-4.9-0.7-6.2,1.4c-1.3,2.1-0.7,4.9,1.4,6.2c1.5,0.9,3.3,0.9,4.8,0
	l3.1,3.1l1.4-1.4L19.3,17.9 M17.3,17.3c-1,1-2.6,1-3.5,0c-1-1-1-2.6,0-3.5c1-1,2.5-1,3.5,0C18.3,14.7,18.3,16.3,17.3,17.3L17.3,17.3
	 M19,4H5C3.9,4,3,4.9,3,6v12c0,1.1,0.9,2,2,2h5.8c-0.6-0.6-1-1.3-1.3-2H5v-4h4.2c0.2-0.7,0.4-1.4,0.8-2H5V8h6v2.8
	c0.6-0.6,1.3-1,2-1.3V8h6v2c0.4,0.3,0.8,0.6,1.1,0.9c0.3,0.3,0.6,0.7,0.9,1.1V6C21,4.9,20.1,4,19,4z"/>
</svg>
