<svg id="eNQgayJ48eG1" xmlns="http://www.w3.org/2000/svg" xmlns:xlink="http://www.w3.org/1999/xlink" viewBox="0 0 24 24" shape-rendering="geometricPrecision" text-rendering="geometricPrecision" project-id="9ceacaff2d8d4807a6f05ca7f655c40e" export-id="0f2a1d4b28f14ed5b5df56d1532bc9eb" cached="false"><path d="M18,7h-3l4-4l4,4h-3v14h-2v-14M8,5C4.14,5,1,8.13,1,12s3.13,7,7,7c3.86,0,7-3.13,7-7s-3.13-7-7-7M8,7.15c2.67,0,4.85,2.17,4.85,4.85s-2.17,4.85-4.85,4.85-4.85-2.17-4.85-4.85s2.17-4.85,4.85-4.85M7,9v3.69l3.19,1.84.75-1.3L8.5,11.82L8.5,9" fill="currentColor"/></svg>
