<svg id="e5pyOQLAcux1" xmlns="http://www.w3.org/2000/svg" xmlns:xlink="http://www.w3.org/1999/xlink" viewBox="0 0 24 24" shape-rendering="geometricPrecision" text-rendering="geometricPrecision" project-id="08f79f6d38384a56a516b89da8b3eff2" export-id="542f22c4b177448fbd14dc682ddcb9ab" cached="false"><path d="M20,17h3l-4,4-4-4h3v-14h2v14M8,5C4.14,5,1,8.13,1,12s3.13,7,7,7c3.86,0,7-3.13,7-7s-3.13-7-7-7M8,7.15c2.67,0,4.85,2.17,4.85,4.85s-2.17,4.85-4.85,4.85-4.85-2.17-4.85-4.85s2.17-4.85,4.85-4.85M7,9v3.69l3.19,1.84.75-1.3L8.5,11.82L8.5,9" fill="currentColor"/></svg>
