<?xml version="1.0" encoding="utf-8"?>
<!-- Generator: Adobe Illustrator 24.0.0, SVG Export Plug-In . SVG Version: 6.00 Build 0)  -->
<svg version="1.1" id="Layer_1" xmlns="http://www.w3.org/2000/svg" xmlns:xlink="http://www.w3.org/1999/xlink" x="0px" y="0px"
	 viewBox="0 0 576 512" style="enable-background:new 0 0 576 512;" xml:space="preserve">
<style type="text/css">
	.st0{fill:currentColor;}
</style>
<path class="st0" d="M576,304v96c0,26.5-21.5,48-48,48H48c-26.5,0-48-21.5-48-48v-96c0-26.5,21.5-48,48-48h480
	C554.5,256,576,277.5,576,304z M528,224c10.6,0,21,2.1,30.8,6.2L462.3,85.4C453.3,72,438.4,64,422.3,64H153.7c-16,0-31,8-39.9,21.4
	L17.2,230.2C27,226.1,37.4,224,48,224H528z M480,320c-17.7,0-32,14.3-32,32s14.3,32,32,32s32-14.3,32-32S497.7,320,480,320z
	 M384,320c-17.7,0-32,14.3-32,32s14.3,32,32,32s32-14.3,32-32S401.7,320,384,320z"/>
</svg>
