<?xml version="1.0" encoding="UTF-8" standalone="no"?>
<svg
   xmlns:dc="http://purl.org/dc/elements/1.1/"
   xmlns:cc="http://creativecommons.org/ns#"
   xmlns:rdf="http://www.w3.org/1999/02/22-rdf-syntax-ns#"
   xmlns:svg="http://www.w3.org/2000/svg"
   xmlns="http://www.w3.org/2000/svg"
   xmlns:sodipodi="http://sodipodi.sourceforge.net/DTD/sodipodi-0.dtd"
   xmlns:inkscape="http://www.inkscape.org/namespaces/inkscape"
   xml:space="preserve"
   width="1024px"
   height="1024px"
   shape-rendering="geometricPrecision"
   text-rendering="geometricPrecision"
   image-rendering="optimizeQuality"
   fill-rule="nonzero"
   clip-rule="evenodd"
   viewBox="0 0 10240 10240"
   version="1.1"
   id="svg8"
   sodipodi:docname="pause.svg"
   inkscape:version="0.92.2 (5c3e80d, 2017-08-06)"><metadata
     id="metadata14"><rdf:RDF><cc:Work
         rdf:about=""><dc:format>image/svg+xml</dc:format><dc:type
           rdf:resource="http://purl.org/dc/dcmitype/StillImage" /></cc:Work></rdf:RDF></metadata><defs
     id="defs12" /><sodipodi:namedview
     pagecolor="#ffffff"
     bordercolor="#666666"
     borderopacity="1"
     objecttolerance="10"
     gridtolerance="10"
     guidetolerance="10"
     inkscape:pageopacity="0"
     inkscape:pageshadow="2"
     inkscape:window-width="1920"
     inkscape:window-height="1027"
     id="namedview10"
     showgrid="false"
     inkscape:zoom="0.23046875"
     inkscape:cx="512"
     inkscape:cy="512"
     inkscape:window-x="1912"
     inkscape:window-y="-8"
     inkscape:window-maximized="1"
     inkscape:current-layer="svg8" /><title
     id="title2">media_pause icon</title><desc
     id="desc4">media_pause icon from the IconExperience.com O-Collection. Copyright by INCORS GmbH (www.incors.com).</desc><path
     id="curve1"
     d="m 6400,1280 h 1280 c 353,0 640,288 640,640 v 6400 c 0,352 -288,640 -640,640 H 6400 c -352,0 -640,-288 -640,-640 V 1920 c 0,-353 287,-640 640,-640 z"
     style="fill:currentColor;fill-opacity:1"
     inkscape:connector-curvature="0" /><path
     id="curve0"
     d="m 2560,1280 h 1280 c 353,0 640,288 640,640 v 6400 c 0,352 -288,640 -640,640 H 2560 c -352,0 -640,-287 -640,-640 V 1920 c 0,-353 287,-640 640,-640 z"
     style="fill:currentColor;fill-opacity:1"
     inkscape:connector-curvature="0" /></svg>