<?xml version="1.0" encoding="utf-8"?>
<!-- Generator: Adobe Illustrator 24.0.0, SVG Export Plug-In . SVG Version: 6.00 Build 0)  -->
<svg version="1.1" id="Layer_1" xmlns="http://www.w3.org/2000/svg" xmlns:xlink="http://www.w3.org/1999/xlink" x="0px" y="0px"
	 viewBox="0 0 640 512" style="enable-background:new 0 0 640 512;" xml:space="preserve">
<style type="text/css">
	.st0{fill:currentColor;}
</style>
<path class="st0" d="M640,130.9V96c0-17.7-14.3-32-32-32H32C14.3,64,0,78.3,0,96v34.9c18.6,6.6,32,24.2,32,45.1s-13.4,38.4-32,45.1
	V320h640v-98.9c-18.6-6.6-32-24.2-32-45.1S621.4,137.6,640,130.9z M224,256h-64V128h64V256z M352,256h-64V128h64V256z M480,256h-64
	V128h64V256z M0,448h64v-26.7c0-8.8,7.2-16,16-16s16,7.2,16,16V448h128v-26.7c0-8.8,7.2-16,16-16s16,7.2,16,16V448h128v-26.7
	c0-8.8,7.2-16,16-16s16,7.2,16,16V448h128v-26.7c0-8.8,7.2-16,16-16s16,7.2,16,16V448h64v-96H0V448z"/>
</svg>
