<?xml version="1.0" encoding="UTF-8" standalone="no"?>
<svg
   xmlns:dc="http://purl.org/dc/elements/1.1/"
   xmlns:cc="http://creativecommons.org/ns#"
   xmlns:rdf="http://www.w3.org/1999/02/22-rdf-syntax-ns#"
   xmlns:svg="http://www.w3.org/2000/svg"
   xmlns="http://www.w3.org/2000/svg"
   xmlns:sodipodi="http://sodipodi.sourceforge.net/DTD/sodipodi-0.dtd"
   xmlns:inkscape="http://www.inkscape.org/namespaces/inkscape"
   fill="#000000"
   height="24"
   viewBox="0 0 24 24"
   width="24"
   version="1.1"
   id="svg6"
   sodipodi:docname="process.svg"
   inkscape:version="0.92.2 (5c3e80d, 2017-08-06)">
  <metadata
     id="metadata12">
    <rdf:RDF>
      <cc:Work
         rdf:about="">
        <dc:format>image/svg+xml</dc:format>
        <dc:type
           rdf:resource="http://purl.org/dc/dcmitype/StillImage" />
        <dc:title></dc:title>
      </cc:Work>
    </rdf:RDF>
  </metadata>
  <defs
     id="defs10" />
  <sodipodi:namedview
     pagecolor="#ffffff"
     bordercolor="#666666"
     borderopacity="1"
     objecttolerance="10"
     gridtolerance="10"
     guidetolerance="10"
     inkscape:pageopacity="0"
     inkscape:pageshadow="2"
     inkscape:window-width="1920"
     inkscape:window-height="1027"
     id="namedview8"
     showgrid="false"
     inkscape:zoom="9.8333333"
     inkscape:cx="12"
     inkscape:cy="12"
     inkscape:window-x="1912"
     inkscape:window-y="-8"
     inkscape:window-maximized="1"
     inkscape:current-layer="svg6" />
  <path
     d="M7.34 6.41L.86 12.9l6.49 6.48 6.49-6.48-6.5-6.49zM3.69 12.9l3.66-3.66L11 12.9l-3.66 3.66-3.65-3.66zm15.67-6.26C17.61 4.88 15.3 4 13 4V.76L8.76 5 13 9.24V6c1.79 0 3.58.68 4.95 2.05 2.73 2.73 2.73 7.17 0 9.9C16.58 19.32 14.79 20 13 20c-.97 0-1.94-.21-2.84-.61l-1.49 1.49C10.02 21.62 11.51 22 13 22c2.3 0 4.61-.88 6.36-2.64 3.52-3.51 3.52-9.21 0-12.72z"
     id="path2"
     style="fill:currentColor;fill-opacity:1" />
  <path
     d="M0 0h24v24H0z"
     fill="none"
     id="path4" />
</svg>
