<?xml version="1.0" encoding="UTF-8" standalone="no"?>
<svg
   xmlns:dc="http://purl.org/dc/elements/1.1/"
   xmlns:cc="http://creativecommons.org/ns#"
   xmlns:rdf="http://www.w3.org/1999/02/22-rdf-syntax-ns#"
   xmlns:svg="http://www.w3.org/2000/svg"
   xmlns="http://www.w3.org/2000/svg"
   xmlns:sodipodi="http://sodipodi.sourceforge.net/DTD/sodipodi-0.dtd"
   xmlns:inkscape="http://www.inkscape.org/namespaces/inkscape"
   xml:space="preserve"
   width="1024px"
   height="1024px"
   shape-rendering="geometricPrecision"
   text-rendering="geometricPrecision"
   image-rendering="optimizeQuality"
   fill-rule="nonzero"
   clip-rule="evenodd"
   viewBox="0 0 10240 10240"
   version="1.1"
   id="svg13"
   sodipodi:docname="relation.svg"
   inkscape:version="0.92.2 (5c3e80d, 2017-08-06)"><metadata
     id="metadata19"><rdf:RDF><cc:Work
         rdf:about=""><dc:format>image/svg+xml</dc:format><dc:type
           rdf:resource="http://purl.org/dc/dcmitype/StillImage" /><dc:title>graph_claw icon</dc:title></cc:Work></rdf:RDF></metadata><defs
     id="defs17" /><sodipodi:namedview
     pagecolor="#ffffff"
     bordercolor="#666666"
     borderopacity="1"
     objecttolerance="10"
     gridtolerance="10"
     guidetolerance="10"
     inkscape:pageopacity="0"
     inkscape:pageshadow="2"
     inkscape:window-width="1920"
     inkscape:window-height="1027"
     id="namedview15"
     showgrid="false"
     inkscape:zoom="0.23046875"
     inkscape:cx="512"
     inkscape:cy="512"
     inkscape:window-x="1912"
     inkscape:window-y="-8"
     inkscape:window-maximized="1"
     inkscape:current-layer="svg13" /><title
     id="title2">graph_claw icon</title><desc
     id="desc4">graph_claw icon from the IconExperience.com O-Collection. Copyright by INCORS GmbH (www.incors.com).</desc><path
     id="curve6"
     d="M 6569,6271 4033,8014 c -85,-199 -208,-377 -362,-525 L 6207,5746 c 85,199 208,377 362,525 z"
     style="fill:currentColor;fill-opacity:1"
     inkscape:connector-curvature="0" /><path
     id="curve5"
     d="m 4126,4792 h 1988 c -22,106 -34,216 -34,328 0,107 11,211 30,312 H 4130 c 19,-101 30,-205 30,-312 0,-112 -12,-222 -34,-328 z"
     style="fill:currentColor;fill-opacity:1"
     inkscape:connector-curvature="0" /><path
     id="curve4"
     d="M 6207,4494 3671,2751 c 154,-148 277,-326 362,-525 l 2536,1743 c -154,148 -277,326 -362,525 z"
     style="fill:currentColor;fill-opacity:1"
     inkscape:connector-curvature="0" /><path
     id="curve3"
     d="m 7680,3840 c 707,0 1280,573 1280,1280 0,707 -573,1280 -1280,1280 -707,0 -1280,-573 -1280,-1280 0,-707 573,-1280 1280,-1280 z m 0,640 c -353,0 -640,287 -640,640 0,353 287,640 640,640 353,0 640,-287 640,-640 0,-353 -287,-640 -640,-640 z"
     style="fill:currentColor;fill-opacity:1"
     inkscape:connector-curvature="0" /><path
     id="curve2"
     d="m 2560,7360 c 707,0 1280,573 1280,1280 0,707 -573,1280 -1280,1280 -707,0 -1280,-573 -1280,-1280 0,-707 573,-1280 1280,-1280 z m 0,640 c -353,0 -640,287 -640,640 0,353 287,640 640,640 353,0 640,-287 640,-640 0,-353 -287,-640 -640,-640 z"
     style="fill:currentColor;fill-opacity:1"
     inkscape:connector-curvature="0" /><path
     id="curve1"
     d="m 2560,3840 c 707,0 1280,573 1280,1280 0,707 -573,1280 -1280,1280 -707,0 -1280,-573 -1280,-1280 0,-707 573,-1280 1280,-1280 z m 0,640 c -353,0 -640,287 -640,640 0,353 287,640 640,640 353,0 640,-287 640,-640 0,-353 -287,-640 -640,-640 z"
     style="fill:currentColor;fill-opacity:1"
     inkscape:connector-curvature="0" /><path
     id="curve0"
     d="m 2560,320 c 707,0 1280,573 1280,1280 0,707 -573,1280 -1280,1280 -707,0 -1280,-573 -1280,-1280 0,-707 573,-1280 1280,-1280 z m 0,640 c -353,0 -640,287 -640,640 0,353 287,640 640,640 353,0 640,-287 640,-640 0,-353 -287,-640 -640,-640 z"
     style="fill:currentColor;fill-opacity:1"
     inkscape:connector-curvature="0" /></svg>