<?xml version="1.0" encoding="utf-8"?>
<!-- Generator: Adobe Illustrator 27.9.3, SVG Export Plug-In . SVG Version: 9.03 Build 53313)  -->
<svg version="1.1" id="Layer_1" xmlns="http://www.w3.org/2000/svg" xmlns:xlink="http://www.w3.org/1999/xlink" x="0px" y="0px"
	 viewBox="0 0 24 24" style="enable-background:new 0 0 24 24;" xml:space="preserve">
<style type="text/css">
	.st0{fill:currentColor;}
	.st1{fill:currentColor;stroke:currentColor;stroke-width:0.5;stroke-miterlimit:10;}
</style>
<path class="st0" d="M5.1,23.3c-0.6,0-1.2-0.2-1.6-0.6s-0.7-0.9-0.7-1.5V3.1C2.8,2.5,3,2,3.5,1.6S4.5,1,5.1,1h9.5L22,7.7v13.5
	c0,0.6-0.2,1.1-0.7,1.5c-0.4,0.4-1,0.6-1.6,0.6H5.1z M5.1,21.5h14.5c0.1,0,0.2,0,0.3-0.1c0.1-0.1,0.1-0.2,0.1-0.2V8.5l-6.2-5.7H5.1
	c-0.1,0-0.2,0-0.3,0.1C4.8,2.9,4.7,3,4.7,3.1v18.1c0,0.1,0,0.2,0.1,0.2C4.9,21.5,5,21.5,5.1,21.5z M4.7,21.5V2.8V21.5z"/>
<path class="st1" d="M8,18.3l-0.5-0.7l3.4-4.5l1.9,2.5l3.4-5l0.5,0.7L12.9,17l-1.9-2.5L8,18.3z"/>
</svg>
