<?xml version="1.0" encoding="UTF-8"?>
<svg id="Layer_1" xmlns="http://www.w3.org/2000/svg" version="1.1" viewBox="0 0 24 24">
  <!-- Generator: Adobe Illustrator 29.5.1, SVG Export Plug-In . SVG Version: 2.1.0 Build 141)  -->
  <defs>
    <style>
      .st0 {
        fill: currentColor;
      }
    </style>
  </defs>
  <path class="st0" d="M5.1,23.3c-.6,0-1.2-.2-1.6-.6s-.7-.9-.7-1.5V3.1c0-.6.2-1.1.7-1.5s1-.6,1.6-.6h9.5l7.4,6.7v13.5c0,.6-.2,1.1-.7,1.5-.4.4-1,.6-1.6.6,0,0-14.6,0-14.6,0ZM5.1,21.5h14.5c.1,0,.2,0,.3-.1.1-.1.1-.2.1-.2v-12.7l-6.2-5.7H5.1c0,0-.2,0-.3,0,0,0,0,0,0,.2v18.1c0,.1,0,.2,0,.2.1,0,.2,0,.3,0ZM4.7,21.5V2.8v18.7Z"/>
  <path id="path4-0" class="st0" d="M17.6,16.8l-4.4-4.6c.4-1.2.2-2.6-.7-3.5-1-1-2.4-1.2-3.6-.7l2.1,2.2-1.5,1.5-2.1-2.2c-.6,1.2-.3,2.8.6,3.8.9,1,2.2,1.2,3.3.8l4.4,4.6c.2.2.5.2.7,0l1.1-1.2c.2-.2.2-.6,0-.7Z"/>
</svg>