<svg 
    xmlns="http://www.w3.org/2000/svg"
    xmlns:xlink="http://www.w3.org/1999/xlink" 
    viewBox="0 0 24 24" 
    shape-rendering="geometricPrecision" 
    text-rendering="geometricPrecision">
    <path d="M8.6,16.6L13.2,12L8.6,7.4L10,6l6,6-6,6-1.4-1.4Z" transform="matrix(1 0 0-1-3.351196 24)" fill="currentColor"/>
    <path d="M20.08951,21.00899c.49443,0,.89524-.36777.89524-.82143v-16.37513c0-.45366-.40081-.82143-.89524-.82143h-3.19926v18.01799h3.19926ZM3.91049,2.991c-.49443,0-.89524.36777-.89524.82143v16.37513c0,.45366.40081.82143.89524.82143h10.97976v-18.01799h-10.97976ZM2.07141,22.96746c-.60684,0-1.09877-.44772-1.09877-1v-19.93493c0-.55229.49194-1,1.09877-1h19.85718c.60684,0,1.09877.44772,1.09877,1v19.93493c0,.55229-.49194,1-1.09877,1h-19.85718Z" fill="currentColor" stroke-width="0"/>
</svg>
