<?xml version="1.0" encoding="utf-8"?>
<!-- Generator: Adobe Illustrator 27.9.0, SVG Export Plug-In . SVG Version: 6.00 Build 0)  -->
<svg version="1.1" id="Layer_1" xmlns="http://www.w3.org/2000/svg" xmlns:xlink="http://www.w3.org/1999/xlink" x="0px" y="0px"
	 viewBox="0 0 24 24" style="enable-background:new 0 0 24 24;" xml:space="preserve">
<style type="text/css">
	.st0{fill:currentColor;}
</style>
<path class="st0" d="M13.1,10.4c1.2-1.7,1.2-4.1,0-5.8C13.6,4.2,14.3,4,15,4c1.9,0,3.5,1.6,3.5,3.5S16.9,11,15,11
	C14.3,11,13.6,10.8,13.1,10.4 M5.5,7.5C5.5,5.6,7.1,4,9,4s3.5,1.6,3.5,3.5S10.9,11,9,11S5.5,9.4,5.5,7.5 M7.5,7.5C7.5,8.3,8.2,9,9,9
	s1.5-0.7,1.5-1.5S9.8,6,9,6S7.5,6.7,7.5,7.5 M16,17v2H2v-2c0,0,0-4,7-4S16,17,16,17 M14,17c-0.1-0.8-1.3-2-5-2s-4.9,1.3-5,2
	 M15.9,13c1.2,1,2,2.4,2.1,4v2h4v-2C22,17,22,13.4,15.9,13L15.9,13z"/>
</svg>
