<?xml version="1.0" encoding="utf-8"?>
<!-- Generator: Adobe Illustrator 22.1.0, SVG Export Plug-In . SVG Version: 6.00 Build 0)  -->
<svg version="1.1"
	 id="svg6" inkscape:version="0.92.2 (5c3e80d, 2017-08-06)" sodipodi:docname="root-cause.svg" xmlns:cc="http://creativecommons.org/ns#" xmlns:dc="http://purl.org/dc/elements/1.1/" xmlns:inkscape="http://www.inkscape.org/namespaces/inkscape" xmlns:rdf="http://www.w3.org/1999/02/22-rdf-syntax-ns#" xmlns:sodipodi="http://sodipodi.sourceforge.net/DTD/sodipodi-0.dtd" xmlns:svg="http://www.w3.org/2000/svg"
	 xmlns="http://www.w3.org/2000/svg" xmlns:xlink="http://www.w3.org/1999/xlink" x="0px" y="0px" viewBox="0 0 24 24"
	 style="enable-background:new 0 0 24 24;" xml:space="preserve">
<style type="text/css">
	.st0{fill:none;}
	.st1{fill:currentColor;}
</style>
<sodipodi:namedview  bordercolor="#666666" borderopacity="1" gridtolerance="10" guidetolerance="10" id="namedview8" inkscape:current-layer="svg6" inkscape:cx="12" inkscape:cy="12" inkscape:pageopacity="0" inkscape:pageshadow="2" inkscape:window-height="1027" inkscape:window-maximized="1" inkscape:window-width="1920" inkscape:window-x="1912" inkscape:window-y="-8" inkscape:zoom="9.8333333" objecttolerance="10" pagecolor="#ffffff" showgrid="false">
	</sodipodi:namedview>
<path id="path2" class="st0" d="M0,0h24v24H0V0z M0,0h24v24H0V0z"/>
<path id="path4" inkscape:connector-curvature="0" class="st1" d="M17.5,15h-0.8l-0.3-0.3c1-1.3,1.6-2.9,1.6-4.7
	c0-4-2.9-7.2-6.5-7.2S5,6.1,5,10H2.5l3.9,4.4l4.2-4.4H7c0-2.8,2-5,4.5-5S16,7.2,16,10c0,2.8-2,5-4.5,5c-0.7,0-1.3-0.2-1.8-0.4
	l-1.5,1.6c1,0.6,2.1,1,3.3,1c1.6,0,3.1-0.7,4.2-1.7l0.3,0.3v0.9l5,5.5l1.5-1.6L17.5,15z"/>
</svg>
