<?xml version="1.0" encoding="UTF-8" standalone="no"?>
<svg
   xmlns:dc="http://purl.org/dc/elements/1.1/"
   xmlns:cc="http://creativecommons.org/ns#"
   xmlns:rdf="http://www.w3.org/1999/02/22-rdf-syntax-ns#"
   xmlns:svg="http://www.w3.org/2000/svg"
   xmlns="http://www.w3.org/2000/svg"
   xmlns:sodipodi="http://sodipodi.sourceforge.net/DTD/sodipodi-0.dtd"
   xmlns:inkscape="http://www.inkscape.org/namespaces/inkscape"
   fill="#000000"
   height="24"
   viewBox="0 0 24 24"
   width="24"
   version="1.1"
   id="svg6"
   sodipodi:docname="select-all.svg"
   inkscape:version="0.92.2 (5c3e80d, 2017-08-06)">
  <metadata
     id="metadata12">
    <rdf:RDF>
      <cc:Work
         rdf:about="">
        <dc:format>image/svg+xml</dc:format>
        <dc:type
           rdf:resource="http://purl.org/dc/dcmitype/StillImage" />
        <dc:title></dc:title>
      </cc:Work>
    </rdf:RDF>
  </metadata>
  <defs
     id="defs10" />
  <sodipodi:namedview
     pagecolor="#ffffff"
     bordercolor="#666666"
     borderopacity="1"
     objecttolerance="10"
     gridtolerance="10"
     guidetolerance="10"
     inkscape:pageopacity="0"
     inkscape:pageshadow="2"
     inkscape:window-width="1920"
     inkscape:window-height="1027"
     id="namedview8"
     showgrid="false"
     inkscape:zoom="9.8333333"
     inkscape:cx="-5.3389831"
     inkscape:cy="12"
     inkscape:window-x="1912"
     inkscape:window-y="-8"
     inkscape:window-maximized="1"
     inkscape:current-layer="svg6" />
  <path
     d="M0 0h24v24H0z"
     fill="none"
     id="path2" />
  <path
     d="m 1.9830508,4.3333333 h 2.180791 V 2.1864407 c -1.199435,0 -2.180791,0.9661017 -2.180791,2.1468926 z m 0,8.5875707 h 2.180791 v -2.146892 h -2.180791 z m 4.3615819,8.587571 h 2.180791 V 19.361582 H 6.3446327 Z M 1.9830508,8.6271186 h 2.180791 V 6.4802261 H 1.9830508 Z M 12.887006,2.1864407 h -2.180792 v 2.1468926 h 2.180792 z m 6.542373,0 v 2.1468926 h 2.18079 c 0,-1.1807909 -0.981355,-2.1468926 -2.18079,-2.1468926 z M 4.1638418,21.508475 v -2.146893 h -2.180791 c 0,1.180791 0.981356,2.146893 2.180791,2.146893 z m -2.180791,-4.293786 h 2.180791 V 15.067796 H 1.9830508 Z M 8.5254237,2.1864407 h -2.180791 v 2.1468926 h 2.180791 z M 10.706214,21.508475 h 2.180792 v -2.146893 h -2.180792 z m 8.723165,-8.587571 h 2.18079 v -2.146892 h -2.18079 z m 0,8.587571 c 1.199435,0 2.18079,-0.966102 2.18079,-2.146893 h -2.18079 z m 0,-12.8813564 h 2.18079 V 6.4802261 h -2.18079 z m 0,8.5875704 h 2.18079 v -2.146893 h -2.18079 z m -4.361582,4.293786 h 2.18079 v -2.146893 h -2.18079 z m 0,-17.1751417 h 2.18079 V 2.1864407 h -2.18079 z M 6.3446327,17.214689 H 17.248587 V 6.4802261 H 6.3446327 Z M 8.5254237,8.6271186 H 15.067797 V 15.067796 H 8.5254237 Z"
     id="path4"
     inkscape:connector-curvature="0"
     style="fill:currentColor;fill-opacity:1;stroke-width:1.08188784" />
</svg>
