<?xml version="1.0" encoding="utf-8"?>
<!-- Generator: Adobe Illustrator 22.1.0, SVG Export Plug-In . SVG Version: 6.00 Build 0)  -->
<svg version="1.1"
	 id="Layer_1" image-rendering="optimizeQuality" text-rendering="geometricPrecision" shape-rendering="geometricPrecision"
	 xmlns="http://www.w3.org/2000/svg" xmlns:xlink="http://www.w3.org/1999/xlink" x="0px" y="0px" viewBox="0 0 1024 1024"
	 style="enable-background:new 0 0 1024 1024;" xml:space="preserve">
<style type="text/css">
	.st0{fill:currentColor;}
</style>
<title>elements_tree icon</title>
<desc>elements_tree icon from the IconExperience.com O-Collection. Copyright by INCORS GmbH (www.incors.com).</desc>
<path id="curve3" class="st0" d="M449,480v64H320v256h129v64H288c-17.7,0-32-14.3-32-32V512V319h64v161H449z"/>
<path id="curve2" class="st0" d="M512,704h192c35.3,0,64,28.8,64,64v128c0,35.2-28.8,64-64,64H512c-35.2,0-64-28.7-64-64V768
	C448,732.7,476.7,704,512,704z M512,768v128h192V768H512z"/>
<path id="curve1" class="st0" d="M512,384h192c35.3,0,64,28.8,64,64v128c0,35.2-28.8,64-64,64H512c-35.2,0-64-28.8-64-64V448
	C448,412.7,476.7,384,512,384z M512,448v128h192V448H512z"/>
<path id="curve0" class="st0" d="M192,64h192c35.3,0,64,28.8,64,64v128c0,35.2-28.8,64-64,64H192c-35.2,0-64-28.8-64-64V128
	C128,92.7,156.7,64,192,64z M192,128v128h192V128H192z"/>
</svg>
