<?xml version="1.0" encoding="UTF-8"?>
<svg id="Layer_1" xmlns="http://www.w3.org/2000/svg" version="1.1" viewBox="0 0 24 24">
  <!-- Generator: Adobe Illustrator 29.5.1, SVG Export Plug-In . SVG Version: 2.1.0 Build 141)  -->
  <defs>
    <style>
      .st0 {
        fill: currentColor;
      }
    </style>
  </defs>
  <path class="st0" d="M13.5,8h-1.5v5l4.3,2.5.7-1.2-3.5-2.1v-4.2M13,3c-5,0-9,4-9,9H1l4,4,4-4h-3c0-3.9,3.1-7,7-7s7,3.1,7,7-3.1,7-7,7-3.7-.8-4.9-2.1l-1.4,1.4c1.6,1.6,3.9,2.6,6.4,2.6,5,0,9-4,9-9S18,3,13,3"/>
</svg>