<?xml version="1.0" encoding="UTF-8"?>
<svg xmlns="http://www.w3.org/2000/svg" version="1.1" viewBox="0 0 24 24">
  <defs>
    <style>
      .cls-1 {
        fill: currentColor;
      }
    </style>
  </defs>
  <!-- Generator: Adobe Illustrator 28.7.3, SVG Export Plug-In . SVG Version: 1.2.0 Build 164)  -->
  <g>
    <g id="Layer_1">
      <path class="cls-1" d="M9.3,22l-.4-3.2c-.2,0-.4-.2-.6-.3s-.4-.2-.6-.4l-3,1.3-2.8-4.8,2.6-2c0-.1,0-.2,0-.3v-.7c0-.1,0-.2,0-.3l-2.6-2,2.8-4.8,3,1.3c.2-.1.4-.3.6-.4s.4-.2.6-.3l.4-3.2h5.5l.4,3.2c.2,0,.4.2.6.3s.4.2.6.4l3-1.3,2.8,4.8-2.6,2c0,.1,0,.2,0,.3v.7c0,.1,0,.2,0,.3l2.6,2-2.8,4.8-3-1.3c-.2.1-.4.3-.6.4s-.4.2-.6.3l-.4,3.2h-5.5ZM11,20h2l.4-2.7c.5-.1,1-.3,1.4-.6s.8-.6,1.2-.9l2.5,1,1-1.7-2.2-1.6c0-.2.1-.5.2-.7s0-.5,0-.8,0-.5,0-.8c0-.3,0-.5-.2-.7l2.2-1.6-1-1.7-2.5,1.1c-.4-.4-.8-.7-1.2-1s-.9-.5-1.4-.6l-.3-2.7h-2l-.4,2.7c-.5.1-1,.3-1.4.6s-.8.6-1.2.9l-2.5-1-1,1.7,2.2,1.6c0,.3-.1.5-.2.8s0,.5,0,.8,0,.5,0,.8,0,.5.2.8l-2.2,1.6,1,1.7,2.5-1.1c.4.4.8.7,1.2,1s.9.5,1.4.6l.3,2.7ZM12.1,15.5c1,0,1.8-.3,2.5-1s1-1.5,1-2.5-.3-1.8-1-2.5-1.5-1-2.5-1-1.8.3-2.5,1-1,1.5-1,2.5.3,1.8,1,2.5,1.5,1,2.5,1Z"/>
    </g>
  </g>
</svg>