<?xml version="1.0" encoding="UTF-8"?>
<svg id="Layer_1" xmlns="http://www.w3.org/2000/svg" version="1.1" viewBox="0 0 24 24">
  <!-- Generator: Adobe Illustrator 29.5.1, SVG Export Plug-In . SVG Version: 2.1.0 Build 141)  -->
  <defs>
    <style>
      .st0 {
        fill: currentColor;
      }
    </style>
  </defs>
  <path class="st0" d="M8,21v-2h2v-2h-6c-.6,0-1-.2-1.4-.6s-.6-.9-.6-1.4V5c0-.6.2-1,.6-1.4s.9-.6,1.4-.6h16c.6,0,1,.2,1.4.6s.6.9.6,1.4v10c0,.6-.2,1-.6,1.4s-.9.6-1.4.6h-6v2h2v2h-8ZM4,15h16V5H4v10ZM4,15V5v10Z"/>
</svg>