<?xml version="1.0" encoding="utf-8"?>
<!-- Generator: Adobe Illustrator 25.4.1, SVG Export Plug-In . SVG Version: 6.00 Build 0)  -->
<svg version="1.1" id="Layer_1" xmlns="http://www.w3.org/2000/svg" xmlns:xlink="http://www.w3.org/1999/xlink" x="0px" y="0px"
	 viewBox="0 0 24 24" style="enable-background:new 0 0 24 24;" xml:space="preserve">
<style type="text/css">
	.st0{fill:currentColor;}
</style>
<path class="st0" d="M21.7,18.6v-1l1.1-0.8c0.1-0.1,0.2-0.2,0.1-0.3l-1-1.7c0-0.1-0.2-0.1-0.3-0.1l-1.2,0.5
	c-0.3-0.2-0.6-0.4-0.9-0.5l-0.2-1.3c0-0.1-0.1-0.2-0.2-0.2h-2c-0.2,0-0.3,0.1-0.3,0.2l-0.2,1.3c-0.3,0.2-0.5,0.3-0.8,0.5l-1.2-0.5
	c-0.1,0-0.2,0-0.3,0.1l-1,1.7c0,0.1,0,0.2,0.1,0.3l1.1,0.8v1l-1.1,0.8c-0.1,0.1-0.2,0.2-0.1,0.3l1,1.7c0.1,0.1,0.2,0.1,0.3,0.1
	l1.2-0.5c0.2,0.2,0.5,0.4,0.8,0.5l0.2,1.3c0.1,0.1,0.2,0.2,0.3,0.2h2c0.1,0,0.2-0.1,0.2-0.2l0.2-1.3c0.3-0.2,0.5-0.3,0.8-0.5
	l1.2,0.4c0.1,0,0.2,0,0.3-0.1l1-1.7c0.1-0.1,0.1-0.2,0-0.2L21.7,18.6 M18,19.5c-0.8,0-1.5-0.7-1.5-1.5s0.7-1.5,1.5-1.5
	s1.5,0.7,1.5,1.5S18.8,19.5,18,19.5 M12.3,22H3c-1.1,0-2-0.9-2-2V4c0-1.1,0.9-2,2-2h18c1.1,0,2,0.9,2,2v9.1c-0.6-0.6-1.3-1.1-2-1.4
	V6H3v14h8.3C11.5,20.7,11.8,21.4,12.3,22z"/>
</svg>
