<?xml version="1.0" encoding="utf-8"?>
<!-- Generator: Adobe Illustrator 25.1.0, SVG Export Plug-In . SVG Version: 6.00 Build 0)  -->
<svg version="1.1" id="Layer_1" xmlns="http://www.w3.org/2000/svg" xmlns:xlink="http://www.w3.org/1999/xlink" x="0px" y="0px"
	 viewBox="0 0 24 24" style="enable-background:new 0 0 24 24;" xml:space="preserve">
<style type="text/css">
	.st0{fill:currentColor;}
</style>
<path class="st0" d="M21.7,13.4l-1,1l-2.1-2.1l1-1c0.2-0.2,0.6-0.2,0.8,0l1.3,1.3C21.9,12.8,21.9,13.1,21.7,13.4 M12,18.9l6.1-6.1
	l2.1,2.1L14.1,21H12V18.9 M4,2h14c1.1,0,2,0.9,2,2v4.2L16.2,12H12v4.2L10.2,18H4c-1.1,0-2-0.9-2-2V4C2,2.9,2.9,2,4,2 M4,6v4h6V6H4
	 M12,6v4h6V6H12 M4,12v4h6v-4H4z"/>
</svg>
