<?xml version="1.0" encoding="UTF-8" standalone="no"?>
<svg
   xmlns:dc="http://purl.org/dc/elements/1.1/"
   xmlns:cc="http://creativecommons.org/ns#"
   xmlns:rdf="http://www.w3.org/1999/02/22-rdf-syntax-ns#"
   xmlns:svg="http://www.w3.org/2000/svg"
   xmlns="http://www.w3.org/2000/svg"
   xmlns:sodipodi="http://sodipodi.sourceforge.net/DTD/sodipodi-0.dtd"
   xmlns:inkscape="http://www.inkscape.org/namespaces/inkscape"
   xml:space="preserve"
   width="1024px"
   height="1024px"
   shape-rendering="geometricPrecision"
   text-rendering="geometricPrecision"
   image-rendering="optimizeQuality"
   fill-rule="nonzero"
   clip-rule="evenodd"
   viewBox="0 0 10240 10240"
   version="1.1"
   id="svg7"
   sodipodi:docname="target.svg"
   inkscape:version="0.92.2 (5c3e80d, 2017-08-06)"><metadata
     id="metadata13"><rdf:RDF><cc:Work
         rdf:about=""><dc:format>image/svg+xml</dc:format><dc:type
           rdf:resource="http://purl.org/dc/dcmitype/StillImage" /></cc:Work></rdf:RDF></metadata><defs
     id="defs11" /><sodipodi:namedview
     pagecolor="#ffffff"
     bordercolor="#666666"
     borderopacity="1"
     objecttolerance="10"
     gridtolerance="10"
     guidetolerance="10"
     inkscape:pageopacity="0"
     inkscape:pageshadow="2"
     inkscape:window-width="1920"
     inkscape:window-height="1027"
     id="namedview9"
     showgrid="false"
     inkscape:zoom="0.23046875"
     inkscape:cx="512"
     inkscape:cy="512"
     inkscape:window-x="1912"
     inkscape:window-y="-8"
     inkscape:window-maximized="1"
     inkscape:current-layer="svg7" /><title
     id="title2">reticle icon</title><desc
     id="desc4">reticle icon from the IconExperience.com O-Collection. Copyright by INCORS GmbH (www.incors.com).</desc><path
     id="curve0"
     d="m 4800,640 h 640 v 653 c 1865,154 3353,1642 3507,3507 h 653 v 640 H 8947 C 8793,7305 7305,8793 5440,8947 v 653 H 4800 V 8947 C 2935,8793 1447,7305 1293,5440 H 640 v -640 h 653 C 1447,2934 2935,1447 4800,1293 Z m 640,1296 v 1291 c 804,135 1438,769 1573,1573 H 8304 C 8154,3288 6952,2086 5440,1936 Z M 8304,5440 H 7013 C 6878,6244 6244,6878 5440,7013 V 8304 C 6952,8154 8154,6952 8304,5440 Z M 4800,8304 V 7013 C 3996,6878 3362,6244 3227,5440 H 1936 c 150,1512 1352,2714 2864,2864 z M 1936,4800 H 3227 C 3362,3996 3996,3362 4800,3227 V 1936 C 3288,2086 2086,3288 1936,4800 Z m 3184,-960 c -707,0 -1280,573 -1280,1280 0,707 573,1280 1280,1280 707,0 1280,-573 1280,-1280 0,-707 -573,-1280 -1280,-1280 z"
     style="fill:currentColor;fill-opacity:1"
     inkscape:connector-curvature="0" /></svg>