<svg id="eAlWBuvEe5b1" xmlns="http://www.w3.org/2000/svg" xmlns:xlink="http://www.w3.org/1999/xlink" viewBox="0 0 24 24" shape-rendering="geometricPrecision" text-rendering="geometricPrecision" project-id="d0af41fce2814274ae62395686e1f189" export-id="91896532e7304c7ba75e7f3e7a06739b" cached="false"><path d="M4,2v6h-2v-6h2M2,22v-6h2v6h-2M5,12c0,1.11-.89,2-2,2-1.1,0-2-.89-2-2c0-1.1.9-2,2-2c1.11,0,2,.9,2,2M16,4c4.42,0,8,3.58,8,8s-3.58,8-8,8c-3.6,0-6.64-2.38-7.65-5.65L6,12L8.35,9.65C9.36,6.38,12.4,4,16,4m0,2c-3.31,0-6,2.69-6,6s2.69,6,6,6s6-2.69,6-6-2.69-6-6-6m-1,7v-5h1.5v4.2l3,1.8-.82,1.26L15,13Z" fill="currentColor"/></svg>
