<?xml version="1.0" encoding="UTF-8" standalone="no"?>
<svg
   xmlns:dc="http://purl.org/dc/elements/1.1/"
   xmlns:cc="http://creativecommons.org/ns#"
   xmlns:rdf="http://www.w3.org/1999/02/22-rdf-syntax-ns#"
   xmlns:svg="http://www.w3.org/2000/svg"
   xmlns="http://www.w3.org/2000/svg"
   xmlns:sodipodi="http://sodipodi.sourceforge.net/DTD/sodipodi-0.dtd"
   xmlns:inkscape="http://www.inkscape.org/namespaces/inkscape"
   version="1.1"
   width="24"
   height="24"
   viewBox="0 0 24 24"
   id="svg1458"
   sodipodi:docname="token.svg"
   inkscape:version="0.92.3 (2405546, 2018-03-11)">
  <metadata
     id="metadata1464">
    <rdf:RDF>
      <cc:Work
         rdf:about="">
        <dc:format>image/svg+xml</dc:format>
        <dc:type
           rdf:resource="http://purl.org/dc/dcmitype/StillImage" />
        <dc:title></dc:title>
      </cc:Work>
    </rdf:RDF>
  </metadata>
  <defs
     id="defs1462" />
  <sodipodi:namedview
     pagecolor="#ffffff"
     bordercolor="#666666"
     borderopacity="1"
     objecttolerance="10"
     gridtolerance="10"
     guidetolerance="10"
     inkscape:pageopacity="0"
     inkscape:pageshadow="2"
     inkscape:window-width="3840"
     inkscape:window-height="2035"
     id="namedview1460"
     showgrid="false"
     inkscape:zoom="55.625733"
     inkscape:cx="10.323176"
     inkscape:cy="19.738238"
     inkscape:window-x="7667"
     inkscape:window-y="-13"
     inkscape:window-maximized="1"
     inkscape:current-layer="svg1458" />
  <rect
     style="stroke: black; fill: red;"
     id="rect1454" />
  <path
     d="M22,18V22H18V19H15V16H12L9.74,13.74C9.19,13.91 8.61,14 8,14A6,6 0 0,1 2,8A6,6 0 0,1 8,2A6,6 0 0,1 14,8C14,8.61 13.91,9.19 13.74,9.74L22,18M7,5A2,2 0 0,0 5,7A2,2 0 0,0 7,9A2,2 0 0,0 9,7A2,2 0 0,0 7,5Z"
     id="path1456"
     style="fill:currentColor;fill-opacity:1" />
</svg>
