<svg width="13" height="11" viewBox="0 0 13 11" fill="none" xmlns="http://www.w3.org/2000/svg">
<path d="M6.15283 8.45959L2.90285 8.45959C1.93634 8.45959 1.15283 7.67609 1.15283 6.70958V6.70958C1.15283 5.74307 1.93634 4.95956 2.90285 4.95956L10.4028 4.95956C11.3693 4.95956 12.1528 4.17607 12.1528 3.20958V3.20958C12.1528 2.24309 11.3693 1.4596 10.4028 1.45959L8.65283 1.45959" stroke="currentColor"/>
<path d="M5.90283 8.89264L6.65283 8.45963L5.90283 8.02662V8.89264Z" fill="currentColor" stroke="currentColor"/>
<path d="M3.15283 1.45959L4.15283 1.45959L5.15283 1.45959" stroke="currentColor"/>
<path d="M5.65283 1.89261L6.40283 1.45959L5.65283 1.02658V1.89261Z" fill="currentColor" stroke="currentColor"/>
<path d="M10.7135 9.75249L12.0671 8.39893L10.7135 7.04536L9.35994 8.39893L10.7135 9.75249L10.7135 9.75249Z" stroke="currentColor"/>
<path d="M3.5 1.5C3.5 0.947715 3.05228 0.5 2.5 0.5C1.94772 0.5 1.5 0.947715 1.5 1.5C1.5 2.05228 1.94772 2.5 2.5 2.5C3.05228 2.5 3.5 2.05228 3.5 1.5Z" stroke="currentColor"/>
</svg>
