<?xml version="1.0" encoding="utf-8"?>
<!-- Generator: Adobe Illustrator 23.0.3, SVG Export Plug-In . SVG Version: 6.00 Build 0)  -->
<svg version="1.1" id="Layer_1" xmlns="http://www.w3.org/2000/svg" xmlns:xlink="http://www.w3.org/1999/xlink" x="0px" y="0px"
	 viewBox="0 0 182 106.5" style="enable-background:new 0 0 182 106.5;" xml:space="preserve">
<style type="text/css">
	.st0{fill:currentColor;}
</style>
<g id="Layer_3">
</g>
<g id="Layer_4">
</g>
<g>
	<g>
		<g>
			<path class="st0" d="M25,20.7c1.3-3.5,4.3-5.7,7.5-5.7c1.2,0,2.3,0.1,3.5,0.8c4,1.8,4.9,6.5,5.6,12.7c0.5,3.6,0.8,9.5,0.9,14
				c-1.3-0.9-2.6-1.8-4.2-2.9c-0.5-0.4-1.1-0.6-1.5-1c-2.9-1.9-5.7-3.8-8.2-6C27,31,22.9,26.5,25,20.7 M24.7,38.4
				c2.8,2.5,6,4.5,8.9,6.5c0.5,0.4,1.1,0.6,1.5,1c1.8,1.2,3.3,2.2,4.6,3.2c0.6,0.4,3.9,2.6,4.9,3.4l5.3,3.5l-0.2-6.9
				c0-0.6-0.5-14.5-1.3-21.7c-0.7-6-1.8-14.9-9.7-18.7C30.9,5.2,22,9.3,18.8,17.8C16.2,25,18.4,32.9,24.7,38.4"/>
			<path class="st0" d="M62.5,39.9c-0.6-2.6,1.6-5.3,3.9-5.7c2.5-0.5,3.8,1.8,4.2,4.2c0.6,2.7-0.4,6.9-2.3,6.9
				C65.6,45.2,63.2,42.5,62.5,39.9 M72.9,51.2c1.9-3.8,2.2-10,0.6-14.7c-1.2-3.4-2.7-5.8-4.6-7.3l5.5-7.1l5-2.6
				c0.6-0.3,0.9-1.2,0.6-1.8c-0.2-0.6-1.1-1-1.6-0.6l-5.3,2.6L72.7,20l-6,7.8c-0.4-0.1-0.6-0.1-0.9-0.3L70,15.4l4.8-2.5
				c0.6-0.3,0.9-1.2,0.6-1.8c-0.2-0.6-1.1-1-1.6-0.6L68.4,13l-0.6,0.8l-4.7,13.6c-0.6,0.1-1.2,0.1-1.8,0.4c-3,1-5.9,3.8-7.4,7.1
				c-1.3,2.9-1.5,6-0.6,8.7c2.3,6.9,8.8,11,14,11c0.6,0,1.1,0,1.6-0.1C70.5,54.2,72,53,72.9,51.2"/>
			<g>
				<path class="st0" d="M15.9,50.3l24.4,16.6c2-1.4,3.8-3.1,5.5-5.1L21.6,45.4C19.5,46.7,17.5,48.4,15.9,50.3z"/>
				<path class="st0" d="M8.1,70.4c4,1.8,8.4,2.9,13,2.9c4.2,0,8.3-0.9,12.1-2.5L11.7,56.1C9.6,60.4,8.3,65.2,8.1,70.4z"/>
			</g>
		</g>
		<g>
			<path class="st0" d="M95,65.5c1.2,0,1.4,0.5,1.1,2l-6.9,30.5c-0.4,1.3-0.8,1.6-2.1,1.6h-3.5c-1.3,0-1.8-0.5-2.1-1.5L78,82.9
				c-0.3-2-0.6-4.2-0.7-6.4H77c0,1.9-0.2,4.1-0.7,6.4l-3.5,15c-0.3,1.3-0.9,1.5-2.1,1.5l-3.5,0c-1.3,0-1.9-0.4-2.1-1.6l-6.9-30.5
				c-0.4-1.3-0.1-2,1.1-2l3.7,0c1.6,0,2,0.4,2.4,1.7l2.5,14.9c0.1,0.9,0.4,2.3,0.5,4s0.2,2.9,0.2,3.4H69c0-0.7,0.1-1.9,0.2-3.6
				c0.1-1.6,0.4-2.9,0.6-4l3.6-14.6c0.4-1.3,1-1.7,2.3-1.7h3.5c1.4,0,2,0.4,2.4,1.7l3.4,14.9c0.6,2.7,0.8,5.2,0.8,7.4h0.4
				c0-2,0.2-4.5,0.7-7.4l2.4-14.9c0.2-1.5,0.8-1.7,2.4-1.7H95z"/>
			<path class="st0" d="M123.7,97.5c0.5,1.3,0,2-1.2,2h-3.5c-2.1,0-2.8-0.4-3.1-1.7l-1.3-4.3h-10.4l-1.4,4.3c-0.5,1.4-1,1.7-3.1,1.7
				h-3.2c-1.2,0-1.5-0.7-1.2-2l10.3-30.5c0.4-1.3,0.9-1.6,2.1-1.6h3.3c1.3,0,1.8,0.4,2.1,1.6L123.7,97.5z M111,80.2
				c-0.6-2.1-0.9-4.5-1-5.8v-0.9h-0.5c0,2.2-0.3,4.5-0.9,6.7l-2.2,7.3h6.8L111,80.2z"/>
			<path class="st0" d="M141.3,66.5c1,0,1.7,0.8,1.7,1.8v2.4c0,1-0.8,1.8-1.7,1.8H135v25.1c0,1.1-0.8,1.9-1.8,1.9h-3.5
				c-1,0-1.8-0.9-1.8-1.9V72.5h-6.3c-1.2,0-1.7-0.3-1.7-1.7v-2.5c0-1,0.8-1.8,1.7-1.8L141.3,66.5z"/>
			<path class="st0" d="M159,65.5c6.1,0,9.5,2.2,11.5,7c0.6,1.3,0.4,1.9-0.9,2.6l-3.3,1.6c-1.2,0.5-1.5,0.4-2.2-0.9
				c-0.9-2.1-2.6-3.1-5-3.1c-3.5,0-5,1-5,3.2c0,1.2,0.6,2.1,2,2.6c1.3,0.5,2.3,0.6,4.5,0.9c2.3,0.4,3.9,0.5,6,1.6
				c1.1,0.5,2,1,2.7,1.8c1.3,1.4,2.3,3.9,2.3,7.1c0,3.2-1.2,6-3.4,7.9c-2.2,1.9-5.4,3-9.3,3c-6.3,0-10.3-2.6-12-7.7
				c-0.4-1.4-0.1-1.9,1.1-2.5l3.2-1.2c1.3-0.5,1.8-0.4,2.2,1.2c0.9,2.2,2.7,3.2,5.5,3.2c3.8,0,5.6-1.2,5.6-3.8c0-2.1-2-3-5.7-3.4
				c-1.4-0.1-2.5-0.4-3.3-0.5c-0.8-0.1-1.8-0.4-3-0.9s-2.2-1-2.9-1.7c-1.4-1.3-2.7-3.9-2.7-7.1C146.8,69.8,151.2,65.5,159,65.5z"/>
		</g>
	</g>
</g>
</svg>
