<?xml version="1.0" encoding="utf-8"?>
<!-- Generator: Adobe Illustrator 23.0.2, SVG Export Plug-In . SVG Version: 6.00 Build 0)  -->
<svg version="1.1" id="Layer_1" xmlns="http://www.w3.org/2000/svg" xmlns:xlink="http://www.w3.org/1999/xlink" x="0px" y="0px"
	 viewBox="0 0 446.6 446.6" style="enable-background:new 0 0 446.6 446.6;" xml:space="preserve">
<style type="text/css">
	.st0{fill:#fdc400;}
	.st1{fill:#222222;}
</style>
<title>gul-sort</title>
<path class="st0" d="M45,0h356.6c24.9,0,45,20.1,45,45v356.6c0,24.9-20.1,45-45,45H45c-24.9,0-45-20.1-45-45V45C0,20.1,20.1,0,45,0z
	"/>
<path class="st1" d="M110.7,111.3c10.1-24.3,38-35.7,62.2-25.6c22.7,9.5,27.4,32.7,31.6,64.6c2.5,18.7,4.3,48,5.5,71.2
	c-7-4.6-14.5-9.3-23.5-14.7l-8.6-5.1c-16.5-9.8-32-19-46.1-30.2C121.4,163.2,98.4,140.7,110.7,111.3 M108.4,201
	c16.1,12.8,33.5,23.1,50.3,33.1c2.8,1.7,5.7,3.3,8.4,5c10.1,6.1,18.4,11.3,25.9,16.3c3.1,2.1,21.9,13.4,27.6,16.9l29.8,17.9
	l-1.2-34.7c-0.1-3-2.5-73.8-7.3-110.2c-4-30.2-10-76-54.5-94.5c-43.5-18-93.3,2.5-111.5,45.9C60.8,133.1,73.3,173,108.4,201"/>
<path class="st1" d="M320.7,208.5c-3.2-13.2,8.9-26.8,21.5-28.9c14.1-2.4,20.9,8.9,23.7,20.8c3.3,13.7-2.1,34.6-13.1,35
	C338.4,235.8,324,222.2,320.7,208.5 M379,266c10.9-18.8,12.2-50.8,3.2-74.4c-6.5-16.9-15.3-29.4-25.7-37.1l30.7-36l28.4-12.9
	c3.5-1.4,5.3-5.3,3.9-8.9c-1.4-3.5-5.3-5.3-8.9-3.9c-0.3,0.1-0.5,0.2-0.7,0.3l-29.8,13.5l-2.4,1.8l-33.7,39.4
	c-1.8-0.6-3.7-1.2-5.6-1.5l23.8-62L389.6,72c3.4-1.6,4.9-5.7,3.3-9.1c-1.6-3.4-5.6-4.9-9-3.4L354.1,73l-3.6,3.8l-26.5,68.9
	c-3.3,0.4-6.5,1-9.7,2c-17.1,5.1-33,18.9-41.4,36.1c-7.3,14.7-8.4,30.4-3.1,44.1c13.4,35.2,49.1,55.7,78,55.7c3,0,6-0.2,8.9-0.7
	C365.8,281.4,373.5,275.6,379,266"/>
<path class="st1" d="M58.9,261.2l137.1,84.3c11.1-7.4,21.3-16,30.7-25.6L91,236.5C79.2,243.2,68.4,251.5,58.9,261.2z"/>
<path class="st1" d="M15.7,363.4c45,18.5,95.4,19.3,140.9,2.2L35.7,291.4C23,313.3,16.1,338.1,15.7,363.4z"/>
</svg>
