<?xml version="1.0" encoding="utf-8"?>
<!-- Generator: Adobe Illustrator 23.0.2, SVG Export Plug-In . SVG Version: 6.00 Build 0)  -->
<svg version="1.1" id="Layer_1" xmlns="http://www.w3.org/2000/svg" xmlns:xlink="http://www.w3.org/1999/xlink" x="0px" y="0px"
	 viewBox="0 0 310 310" style="enable-background:new 0 0 310 310;" xml:space="preserve">
<style type="text/css">
	.st0{fill:#fdc400;stroke:#000000;stroke-miterlimit:10;}
	.st1{fill:#424242;}
</style>
<rect x="-69" y="-57" class="st0" width="484" height="423"/>
<g>
	<path class="st1" d="M79.3,82.2c5.2-12.5,17.1-20.2,29.8-20.6c4.7-0.2,9.4,0.7,14,2.6c16,6.7,19.3,23.1,22.3,45.5
		c1.7,13.2,3,33.8,3.9,50.2c-4.9-3.2-10.2-6.6-16.5-10.3c-2-1.2-4-2.4-6-3.6c-11.6-6.9-22.5-13.4-32.4-21.2
		C86.9,118.8,70.7,102.9,79.3,82.2 M77.8,145.4c11.3,9,23.6,16.3,35.4,23.3c2,1.2,4,2.4,5.9,3.5c7.1,4.3,12.9,7.9,18.2,11.5
		c2.2,1.5,15.4,9.5,19.4,11.9l20.9,12.6l-0.8-24.5c-0.1-2.1-1.8-52-5.2-77.6c-2.8-21.3-7-53.5-38.4-66.5
		C102.8,26.9,67.6,41.4,54.8,72C44.2,97.6,53,125.7,77.8,145.4"/>
	<path class="st1" d="M227.3,150.7c-2.3-9.3,6.3-18.9,15.2-20.4c9.9-1.7,14.7,6.3,16.7,14.6c2.4,9.6-1.5,24.4-9.2,24.6
		C239.7,169.9,229.6,160.3,227.3,150.7 M268.3,191.2c7.6-13.3,8.6-35.8,2.3-52.4c-4.6-11.9-10.7-20.7-18.1-26.1l21.6-25.3l20-9.1
		c2.4-1.1,3.5-4,2.4-6.4s-4-3.5-6.4-2.4l-21,9.5l-1.7,1.3L243.8,108c-1.3-0.5-2.6-0.8-4-1.1l16.8-43.6l19.2-8.7
		c2.4-1.1,3.5-4,2.4-6.4s-4-3.5-6.4-2.4l-21,9.5l-2.5,2.7l-18.6,48.5c-2.2,0.3-4.5,0.7-6.8,1.4c-12,3.6-23.2,13.3-29.2,25.4
		c-5.1,10.4-5.9,21.4-2.2,31.1c9.5,24.8,34.6,39.2,54.9,39.2c2.2,0,4.2-0.2,6.3-0.5C259,202,264.5,197.9,268.3,191.2"/>
	<g>
		<path class="st1" d="M42.8,187.8l96.5,59.3c7.8-5.2,15.1-11.3,21.6-18l-95.5-58.7C57.2,175.2,49.5,181,42.8,187.8z"/>
		<path class="st1" d="M12.4,259.8C28.3,266.4,45.7,270,64,270c16.8,0,32.8-3.1,47.6-8.6L26.5,209C17.9,224,12.7,241.3,12.4,259.8z"
			/>
	</g>
</g>
</svg>
