<?xml version="1.0" encoding="UTF-8"?>
<svg id="a" xmlns="http://www.w3.org/2000/svg" version="1.1" viewBox="0 0 141.6 39.6">
  <!-- Generator: Adobe Illustrator 29.4.0, SVG Export Plug-In . SVG Version: 2.1.0 Build 152)  -->
  <defs>
    <style>
      .st0 {
        fill: currentColor;
      }
    </style>
  </defs>
  <path class="st0" d="M103.3,4.7c1.6,0,2.1.5,2.1,1.8v3c0,1.4-.5,1.8-2.1,1.8h-7.8v23.3c0,1.4-.5,1.8-2.1,1.8h-4.1c-1.6,0-2-.5-2-1.8V11.3h-7.9c-1.6,0-2.1-.4-2.1-1.8v-3c0-1.4.5-1.8,2.1-1.8h23.9,0Z"/>
  <path class="st0" d="M122.5,4c7.2,0,11.1,2.1,13.5,6.6.7,1.3.3,1.9-1.1,2.4l-3.8,1.5c-1.4.5-1.9.3-2.6-.9-1.1-2-3.1-3-5.9-3-4.2,0-5.9.9-5.9,3.1s.7,1.9,2.3,2.4c1.6.5,2.8.7,5.2.9,2.8.3,4.5.5,7.1,1.4,1.3.5,2.3,1,3.1,1.7,1.6,1.3,2.8,3.7,2.8,6.7s-1.4,5.6-4,7.4c-2.7,1.9-6.3,2.8-10.9,2.8-7.4,0-12.1-2.4-14.1-7.2-.5-1.3-.1-1.8,1.3-2.3l3.7-1.2c1.5-.5,2-.3,2.7,1.1,1.1,2.1,3.2,3.1,6.5,3.1s6.7-1.2,6.7-3.5-2.4-2.8-6.8-3.2c-1.6-.2-2.9-.4-3.8-.5-1-.1-2.1-.4-3.6-.9-1.5-.5-2.6-1-3.4-1.6-1.7-1.3-3.1-3.6-3.1-6.8,0-6,5.2-10,14.3-10h0Z"/>
  <path class="st0" d="M24.8,4.7c-1.7,0-2.4.4-2.7,1.6l-5.5,18.4-3.6-18.4c-.3-1.3-.9-1.6-2.7-1.6h-4.8c-1.4,0-1.7.5-1.3,1.8l8,28.5c.3,1.3,1,1.5,2.5,1.5h4c1.5,0,2.3-.5,2.5-1.4l5.1-18.1,5.1,18.1c.3.9,1.1,1.4,2.5,1.4h4c1.6,0,2.2-.3,2.5-1.5l8-28.5c.4-1.3.1-1.8-1.3-1.8h-4.2c-1.8,0-2.5.3-2.7,1.6l-3.8,18.4-5.2-18.4c-.3-1.3-1.1-1.6-2.7-1.6h-3.7,0Z"/>
  <path class="st0" d="M80.9,34.7l-12-28.5c-.5-1.1-1.1-1.4-2.5-1.4h-3.9c-1.5,0-2.1.3-2.5,1.5l-12,28.5c-.5,1.2,0,1.8,1.4,1.8h3.5c2.5,0,3.1-.4,3.7-1.7l1.6-4.2h12.4l1.6,4.2c.5,1.3,1.3,1.7,3.7,1.7h3.8c1.4,0,1.9-.6,1.4-1.8h0ZM60.1,24.7l4.1-10.8,4.1,10.8h-8.2Z"/>
</svg>