<?xml version="1.0" encoding="utf-8"?>
<!-- Generator: Adobe Illustrator 23.0.3, SVG Export Plug-In . SVG Version: 6.00 Build 0)  -->
<svg version="1.1" id="Layer_1" xmlns="http://www.w3.org/2000/svg" xmlns:xlink="http://www.w3.org/1999/xlink" x="0px" y="0px"
	 viewBox="0 0 310 310" style="enable-background:new 0 0 310 310;" xml:space="preserve">
<style type="text/css">
	.st0{clip-path:url(#SVGID_2_);fill:#485361;}
	.st1{fill:#FDC400;}
</style>
<g>
	<g>
		<g>
			<defs>
				<rect id="SVGID_1_" x="3.1" y="20.3" width="303.8" height="271.7"/>
			</defs>
			<clipPath id="SVGID_2_">
				<use xlink:href="#SVGID_1_"  style="overflow:visible;"/>
			</clipPath>
			<path class="st0" d="M241.8,34.9c-4.6-8-16-14.5-25.2-14.5H93.4c-9.2,0-20.6,6.5-25.2,14.5L6.6,141.6c-4.6,8-4.6,21.1,0,29.1
				l61.6,106.7c4.6,8,16,14.6,25.2,14.6h123.2c9.2,0,20.6-6.5,25.2-14.5l61.6-106.7c4.6-8,4.6-21.1,0-29.1L241.8,34.9z"/>
		</g>
	</g>
</g>
<g>
	<path class="st1" d="M106.4,99.2c3.9-9.4,12.9-15.2,22.4-15.5c3.5-0.1,7.1,0.5,10.5,1.9c12,5,14.5,17.3,16.7,34.2
		c1.3,9.9,2.3,25.4,2.9,37.7c-3.7-2.4-7.7-4.9-12.4-7.8c-1.5-0.9-3-1.8-4.5-2.7c-8.7-5.2-16.9-10.1-24.4-16
		C112.1,126.7,99.9,114.8,106.4,99.2 M105.2,146.7c8.5,6.8,17.7,12.2,26.6,17.5c1.5,0.9,3,1.8,4.5,2.7c5.4,3.2,9.7,6,13.7,8.6
		c1.6,1.1,11.6,7.1,14.6,8.9l15.7,9.5l-0.6-18.4c-0.1-1.6-1.4-39-3.9-58.3c-2.1-16-5.3-40.2-28.8-50c-23-9.6-49.4,1.3-59,24.3
		C80,110.7,86.6,131.9,105.2,146.7"/>
	<path class="st1" d="M217.5,150.6c-1.7-7,4.7-14.2,11.4-15.3c7.4-1.2,11,4.7,12.6,11c1.8,7.2-1.1,18.3-6.9,18.5
		C226.9,165.1,219.3,157.8,217.5,150.6 M248.4,181.1c5.7-10,6.5-26.9,1.7-39.4c-3.4-8.9-8.1-15.6-13.6-19.6l16.2-19l15-6.8
		c1.8-0.8,2.6-3,1.8-4.8c-0.8-1.8-3-2.6-4.8-1.8l-15.7,7l-1.3,0.9l-17.8,20.8c-1-0.3-2-0.6-3-0.8l12.6-32.8l14.4-6.5
		c1.8-0.8,2.6-3,1.8-4.8s-3-2.6-4.8-1.8l-15.8,7.1l-1.9,2l-14,36.5c-1.7,0.2-3.4,0.5-5.1,1c-9.1,2.7-17.4,10-21.9,19.1
		c-3.8,7.8-4.4,16.1-1.7,23.3c7.1,18.6,26,29.5,41.3,29.5c1.6,0,3.2-0.1,4.7-0.4C241.4,189.2,245.5,186.1,248.4,181.1"/>
	<g>
		<path class="st1" d="M78.9,178.5l72.5,44.6c5.9-3.9,11.3-8.5,16.2-13.5L96,165.4C89.7,169,84,173.4,78.9,178.5z"/>
		<path class="st1" d="M56.1,232.6c12,4.9,25.1,7.7,38.8,7.7c12.6,0,24.7-2.3,35.8-6.5l-63.9-39.3C60.2,205.7,56.3,218.7,56.1,232.6
			z"/>
	</g>
</g>
</svg>
