<?xml version="1.0" encoding="utf-8"?>
<!-- Generator: Adobe Illustrator 24.1.2, SVG Export Plug-In . SVG Version: 6.00 Build 0)  -->
<svg version="1.1" id="Layer_1" xmlns="http://www.w3.org/2000/svg" xmlns:xlink="http://www.w3.org/1999/xlink" x="0px" y="0px"
	 viewBox="0 0 24 24" style="enable-background:new 0 0 24 24;" xml:space="preserve">
<style type="text/css">
	.st0{fill:currentColor;}
</style>
<path class="st0" d="M15.5,14l5,5L19,20.5l-5-5v-0.8l-0.3-0.3c-1.1,1-2.6,1.6-4.2,1.6C5.9,16,3,13.1,3,9.5S5.9,3,9.5,3
	S16,5.9,16,9.5c0,1.6-0.6,3.1-1.6,4.2l0.3,0.3H15.5 M9.5,14C12,14,14,12,14,9.5S12,5,9.5,5S5,7,5,9.5S7,14,9.5,14 M12,10h-2v2H9v-2
	H7V9h2V7h1v2h2V10z"/>
</svg>
